# xmcd CD database file
#
# Track frame offsets:
#	150
#	25988
#	41209
#	59476
#	74543
#	92276
#	110756
#	132999
#	154641
#	170240
#	190892
#	208403
#	229230
#	250876
#	272069
#	290077
#	310392
#	328117
#
# Disc length: 4629 seconds
#
# Revision: 17
# Processed by: cddbd v1.5.2PL0 Copyright (c) Steve Scherf et al.
# Submitted via: CDex 1.70beta2
#
DISCID=21121312
DTITLE=Zucchero - Zu and Co.
DYEAR=2004
DGENRE=Blues
TTITLE0=Zucchero and Miles Davis - Dune Mosse
TTITLE1=Zucchero and Sting - Muoio Per Te
TTITLE2=Zucchero and Vanessa Carlton - Everybody's Got To Learn Sometime
TTITLE3=Zucchero - Mama Get Real
TTITLE4=Zucchero and Macy Gray - Like The Sun
TTITLE5=Zucchero and Mana - Baila Morena
TTITLE6=Zucchero and John Lee Hooker - I Lay Down
TTITLE7=Zucchero and Sheryl Crow - Blue
TTITLE8=Zucchero and Dolores O'Riordan - Pure Love
TTITLE9=Zucchero and Eric Clapton - A Wonderful World
TTITLE10=Zucchero and Tom Jones - Pippo - Nasty Guy
TTITLE11=Zucchero and B.B. King - Hey Man - Sing A Song
TTITLE12=Zucchero and Ronan Keating - The Flight
TTITLE13=Zucchero and Cheb Mami - Così Celeste
TTITLE14=Zucchero and Solomon Burke - A Devil In Me
TTITLE15=Zucchero and Paul Young - Senza Una Donna
TTITLE16=Zucchero and Brian May - Il Mare Impetuoso Al Tramonto Sali Sulla Luna E Dietro Una Tendina Di Stelle...
TTITLE17=Zucchero, Luciano Pavarotti and Andrea Bocelli - Miserere
EXTD=YEAR: 2004
EXTT0=
EXTT1=
EXTT2=
EXTT3=
EXTT4=
EXTT5=
EXTT6=
EXTT7=
EXTT8=
EXTT9=
EXTT10=
EXTT11=
EXTT12=
EXTT13=
EXTT14=
EXTT15=
EXTT16=
EXTT17=
PLAYORDER=
